<svg id="Capa_1" enable-background="new 0 0 512 512" height="512" viewBox="0 0 512 512" width="512" xmlns="http://www.w3.org/2000/svg"><g><path d="m469.598 213.598c0 117.967-95.631 290.791-213.598 290.791s-213.598-172.824-213.598-290.791 95.631-213.598 213.598-213.598 213.598 95.631 213.598 213.598z" fill="#da4a54"/><path d="m256 0c-4.264 0-8.496.139-12.699.386 112.053 6.572 200.899 99.51 200.899 213.212 0 113.703-88.845 278.363-200.899 290.117 4.202.441 8.435.674 12.699.674 117.967 0 213.598-172.824 213.598-290.791s-95.631-213.598-213.598-213.598z" fill="#d82e3d"/><circle cx="256" cy="213.598" fill="#eaa598" r="146.237"/><path d="m256 67.361c-4.88 0-9.703.244-14.461.711 73.976 7.262 131.776 69.642 131.776 145.526s-57.801 138.263-131.776 145.526c4.758.467 9.581.711 14.461.711 80.764 0 146.237-65.473 146.237-146.237 0-80.765-65.472-146.237-146.237-146.237z" fill="#e48e81"/><g><g><g><path d="m182.853 250.131c-10.018 0-19.421-4.037-25.798-11.074-2.823-3.115-2.586-7.929.529-10.751 3.116-2.822 7.929-2.586 10.751.529 3.446 3.803 8.873 6.073 14.517 6.073 5.389 0 9.179-3.184 9.729-6.263.736-4.129-5.433-6.746-7.342-7.451-8.981-3.312-16.959-6.863-17.294-7.013-.367-.164-.72-.356-1.056-.576-6.224-4.058-9.431-11.175-8.37-18.573 1.131-7.874 6.883-14.287 15.012-16.736 15.999-4.818 29.16 6.035 29.713 6.499 3.218 2.706 3.633 7.506.929 10.724-2.694 3.204-7.466 3.63-10.683.963-.227-.181-7.628-6-15.567-3.611-3.503 1.056-4.198 3.376-4.335 4.324-.094.661-.143 2.238 1.241 3.383 2.082.911 8.641 3.737 15.68 6.333 14.815 5.465 18.526 16.192 17.058 24.409-1.945 10.9-12.339 18.811-24.714 18.811z" fill="#f6f1f1"/></g></g><g><g><path d="m331.9 250.131c-10.016 0-19.419-4.037-25.798-11.074-2.823-3.114-2.586-7.928.529-10.751 3.113-2.822 7.928-2.588 10.751.529 3.447 3.803 8.874 6.073 14.517 6.073 5.39 0 9.179-3.184 9.729-6.263.737-4.129-5.432-6.746-7.341-7.451-8.982-3.312-16.96-6.863-17.295-7.013-.367-.164-.72-.356-1.056-.576-6.224-4.058-9.431-11.175-8.37-18.573 1.131-7.874 6.883-14.287 15.012-16.736 16-4.818 29.161 6.035 29.713 6.499 3.218 2.706 3.633 7.506.929 10.724-2.694 3.204-7.466 3.63-10.683.963-.228-.181-7.629-6-15.567-3.611-3.503 1.056-4.198 3.376-4.335 4.324-.094.661-.143 2.238 1.241 3.383 2.082.911 8.641 3.737 15.68 6.333 14.816 5.465 18.526 16.192 17.059 24.409-1.946 10.9-12.341 18.811-24.715 18.811z" fill="#f6f1f1"/></g></g><g><path d="m256 250.131c-20.145 0-36.533-16.388-36.533-36.533s16.389-36.533 36.533-36.533 36.534 16.389 36.534 36.533-16.39 36.533-36.534 36.533zm0-57.843c-11.75 0-21.31 9.56-21.31 21.31s9.56 21.31 21.31 21.31c11.751 0 21.311-9.56 21.311-21.31s-9.56-21.31-21.311-21.31z" fill="#f6f1f1"/></g></g><g><path d="m399.667 512h-287.333c-4.204 0-7.611-3.407-7.611-7.612s3.407-7.612 7.611-7.612h287.333c4.204 0 7.611 3.407 7.611 7.612s-3.407 7.612-7.611 7.612z" fill="#eaa598"/></g><g><path d="m256 422.437c-31.81 0-62.36-6.972-90.799-20.723-3.785-1.83-5.37-6.382-3.539-10.165 1.829-3.784 6.38-5.371 10.166-3.539 26.357 12.743 54.676 19.205 84.172 19.205s57.817-6.462 84.173-19.205c3.785-1.831 8.336-.245 10.165 3.539 1.831 3.784.246 8.336-3.539 10.165-28.438 13.751-58.989 20.723-90.799 20.723z" fill="#d82e3d"/></g></g></svg>